<?xml version="1.0" encoding="UTF-8" standalone="no"?>
<!DOCTYPE svg PUBLIC "-//W3C//DTD SVG 1.1//EN" "http://www.w3.org/Graphics/SVG/1.1/DTD/svg11.dtd">
<svg version="1.1" xmlns="http://www.w3.org/2000/svg" xmlns:xlink="http://www.w3.org/1999/xlink" preserveAspectRatio="xMidYMid meet" viewBox="0 0 640 640" width="352" height="512"><defs><path d="M120 339.29C120 328.25 128.95 319.29 140 319.29C151.05 319.29 160 328.25 160 339.29C160 427.66 231.63 499.29 320 499.29C408.37 499.29 480 427.66 480 339.29C480 328.25 488.95 319.29 500 319.29C511.05 319.29 520 328.25 520 339.29C520 449.75 430.46 539.29 320 539.29C209.54 539.29 120 449.75 120 339.29Z" id="g2CsWnCq9"></path><path d="M300 600C300 592 300 528 300 520C300 508.95 308.95 500 320 500C331.05 500 340 508.95 340 520C340 528 340 592 340 600C340 611.05 331.05 620 320 620C308.95 620 300 611.05 300 600Z" id="h13oSupCe0"></path><path d="M200 338.58C200 318.58 200 158.58 200 138.58C200 72.31 253.73 18.58 320 18.58C386.27 18.58 440 72.31 440 138.58C440 158.58 440 318.58 440 338.58C440 404.86 386.27 458.58 320 458.58C253.73 458.58 200 404.86 200 338.58ZM240 138.58C240 158.58 240 318.58 240 338.58C240 382.76 275.82 418.58 320 418.58C364.18 418.58 400 382.76 400 338.58C400 318.58 400 158.58 400 138.58C400 94.4 364.18 58.58 320 58.58C275.82 58.58 240 94.4 240 138.58Z" id="b7QzrU6Xe"></path><path d="M246.81 311.96C246.81 296.73 246.81 174.9 246.81 159.67C246.81 109.21 279.58 68.3 320 68.3C360.42 68.3 393.19 109.21 393.19 159.67C393.19 174.9 393.19 296.73 393.19 311.96C393.19 362.42 360.42 403.33 320 403.33C279.58 403.33 246.81 362.42 246.81 311.96ZM271.21 159.67C271.21 174.9 271.21 296.73 271.21 311.96C271.21 345.6 293.05 372.88 320 372.88C346.95 372.88 368.79 345.6 368.79 311.96C368.79 296.73 368.79 174.9 368.79 159.67C368.79 126.03 346.95 98.76 320 98.76C293.05 98.76 271.21 126.03 271.21 159.67Z" id="c3CH5gudxn"></path><path d="M360.08 90.92C366.15 90.92 371.06 95.84 371.06 101.91C371.06 156.87 371.06 310.79 371.06 365.75C371.06 371.82 366.15 376.74 360.08 376.74C341.71 376.74 297.58 376.74 279.21 376.74C273.15 376.74 268.23 371.82 268.23 365.75C268.23 310.79 268.23 156.87 268.23 101.91C268.23 95.84 273.15 90.92 279.21 90.92C297.58 90.92 341.71 90.92 360.08 90.92Z" id="a182MBGf7"></path></defs><g><g><g><use xlink:href="#g2CsWnCq9" opacity="1" fill="#ffffff" fill-opacity="1"></use><g><use xlink:href="#g2CsWnCq9" opacity="1" fill-opacity="0" stroke="#000000" stroke-width="1" stroke-opacity="0"></use></g></g><g><use xlink:href="#h13oSupCe0" opacity="1" fill="#ffffff" fill-opacity="1"></use><g><use xlink:href="#h13oSupCe0" opacity="1" fill-opacity="0" stroke="#000000" stroke-width="1" stroke-opacity="0"></use></g></g><g><use xlink:href="#b7QzrU6Xe" opacity="1" fill="#ffffff" fill-opacity="1"></use><g><use xlink:href="#b7QzrU6Xe" opacity="1" fill-opacity="0" stroke="#000000" stroke-width="1" stroke-opacity="0"></use></g></g><g><use xlink:href="#c3CH5gudxn" opacity="1" fill="#ffffff" fill-opacity="1"></use></g><g><use xlink:href="#a182MBGf7" opacity="1" fill="#ffffff" fill-opacity="1"></use></g></g></g></svg>